<svg width="208" height="60" xmlns="http://www.w3.org/2000/svg">
  <path d="M18.633 34.941a4.773 4.773 0 0 0 .547-2.187c0-.508-.088-.986-.264-1.436a3.379 3.379 0 0 0-.791-1.191 3.783 3.783 0 0 0-1.318-.82c-.528-.202-1.143-.303-1.846-.303-1.016 0-1.927.179-2.734.537-.808.358-1.52.85-2.14 1.475a9.198 9.198 0 0 0-1.581 2.168c-.436.82-.794 1.699-1.074 2.636-.28.938-.485 1.898-.616 2.881-.13.983-.195 1.944-.195 2.881 0 1.68.218 3.206.654 4.58.437 1.374 1.026 2.546 1.768 3.516.742.97 1.608 1.722 2.598 2.256.99.533 2.044.8 3.164.8 1.185 0 2.386-.309 3.603-.927 1.218-.619 2.4-1.618 3.545-2.998.078.039.18.094.303.166.124.071.237.153.342.244.104.09.195.182.273.273.078.091.117.176.117.254 0 .052-.006.085-.02.098l-.038.078c-1.263 2.044-2.78 3.574-4.551 4.59-1.77 1.015-3.711 1.523-5.82 1.523-1.146 0-2.2-.16-3.164-.478a9.528 9.528 0 0 1-2.618-1.328 9.891 9.891 0 0 1-2.06-2.012 12.206 12.206 0 0 1-1.485-2.52 13.984 13.984 0 0 1-.898-2.851 15.158 15.158 0 0 1-.303-3.018c0-1.367.15-2.737.45-4.111a19.55 19.55 0 0 1 1.318-3.965 19.094 19.094 0 0 1 2.11-3.555 15.082 15.082 0 0 1 2.812-2.87 12.777 12.777 0 0 1 3.466-1.915 11.671 11.671 0 0 1 4.043-.693c1.068 0 2.064.13 2.989.39.924.26 1.722.629 2.392 1.104a5.365 5.365 0 0 1 1.582 1.719c.384.67.577 1.416.577 2.236 0 .534-.082 1.006-.245 1.416-.162.41-.39.762-.683 1.055a2.885 2.885 0 0 1-1.035.664c-.397.15-.83.224-1.3.224-.286 0-.582-.029-.888-.088a4.304 4.304 0 0 1-.908-.283l-.078-.215zm11.172 20.567l-.313-.02c.104-1.237.202-2.584.293-4.043.091-1.458.176-2.94.254-4.443.078-1.504.147-2.995.205-4.473.059-1.478.11-2.858.156-4.14.046-1.283.079-2.432.098-3.448.02-1.015.03-1.816.03-2.402 0-.482-.02-.898-.06-1.25-.038-.352-.126-.644-.263-.879a1.222 1.222 0 0 0-.596-.517c-.26-.111-.612-.166-1.054-.166-.222 0-.45.013-.684.039a11.51 11.51 0 0 0-.781.117c-.287.052-.609.12-.967.205-.358.085-.771.185-1.24.303l-.293-1.407c2.161-.78 3.913-1.331 5.254-1.65 1.34-.319 2.246-.479 2.715-.479.859 0 1.474.251 1.845.752.371.502.557 1.247.557 2.237 0 .09-.013.358-.04.8a483.09 483.09 0 0 1-.273 4.2 326.778 326.778 0 0 1-.84 9.863l.196.02a72.694 72.694 0 0 1 2.119-7.14c.788-2.206 1.673-4.123 2.656-5.751.983-1.628 2.064-2.907 3.242-3.838 1.179-.93 2.471-1.396 3.877-1.396.495 0 .957.078 1.387.234.43.156.8.374 1.113.654.313.28.56.612.743.996a2.9 2.9 0 0 1 .273 1.26c0 .586-.127 1.15-.38 1.69-.255.54-.655 1.018-1.202 1.435h-.156c-.547-.456-1.065-.784-1.553-.986a4.025 4.025 0 0 0-1.553-.303c-.586 0-1.152.11-1.699.332a4.996 4.996 0 0 0-1.504.957c-.742.677-1.432 1.572-2.07 2.686a27.53 27.53 0 0 0-1.748 3.7 47.497 47.497 0 0 0-1.426 4.268 71.031 71.031 0 0 0-1.094 4.356 64.959 64.959 0 0 0-.742 3.984 55.465 55.465 0 0 0-.4 3.135l-4.082.508zm39.668-6.563c.078.04.179.095.302.166.124.072.238.15.342.235.104.084.195.175.274.273a.459.459 0 0 1 .117.283.26.26 0 0 1-.059.157 16.113 16.113 0 0 1-2.353 2.646 14.493 14.493 0 0 1-2.617 1.875c-.905.501-1.827.872-2.764 1.113-.938.241-1.862.362-2.774.362-1.562 0-2.994-.32-4.296-.957a10.29 10.29 0 0 1-3.36-2.618c-.937-1.106-1.67-2.405-2.197-3.896-.527-1.49-.791-3.09-.791-4.795 0-1.393.153-2.786.459-4.18a19.617 19.617 0 0 1 1.328-3.984 18.358 18.358 0 0 1 2.12-3.525 14.817 14.817 0 0 1 2.84-2.832 13.137 13.137 0 0 1 3.497-1.885c1.27-.456 2.633-.684 4.092-.684.963 0 1.881.13 2.754.39.872.261 1.637.636 2.295 1.124a5.514 5.514 0 0 1 1.572 1.807c.39.716.586 1.53.586 2.44 0 1.33-.433 2.488-1.299 3.477-.866.99-2.06 1.83-3.584 2.52-1.523.69-3.317 1.247-5.38 1.67a58.668 58.668 0 0 1-6.69.947v.332c0 1.667.211 3.19.634 4.57.424 1.38 1.006 2.562 1.749 3.545.742.984 1.614 1.749 2.617 2.295a6.665 6.665 0 0 0 3.242.82c1.172 0 2.373-.289 3.603-.868 1.23-.58 2.478-1.52 3.74-2.823zM65.8 33.262c0-.6-.101-1.16-.303-1.68a4.184 4.184 0 0 0-.84-1.357 3.912 3.912 0 0 0-2.88-1.24c-.847 0-1.615.15-2.305.449-.69.3-1.309.706-1.856 1.22a8.577 8.577 0 0 0-1.445 1.797c-.417.684-.772 1.41-1.065 2.178-.293.768-.53 1.556-.712 2.363a19.851 19.851 0 0 0-.391 2.363c1.849-.13 3.506-.354 4.97-.673 1.465-.32 2.702-.73 3.712-1.23 1.009-.502 1.78-1.101 2.314-1.798.534-.696.8-1.494.8-2.392zm24.844 1.66c0-1.029-.17-1.92-.508-2.676-.339-.755-.782-1.374-1.328-1.855a5.414 5.414 0 0 0-1.856-1.075 6.404 6.404 0 0 0-2.07-.351c-.925 0-1.706.097-2.344.293-.638.195-1.156.462-1.553.8a2.932 2.932 0 0 0-.859 1.202c-.176.462-.264.96-.264 1.494 0 .625.114 1.253.342 1.885a7.245 7.245 0 0 0 1.006 1.845l-.078.215c-.742.365-1.491.547-2.246.547-.443 0-.856-.068-1.24-.205a2.842 2.842 0 0 1-.997-.596c-.28-.26-.5-.58-.664-.957a3.176 3.176 0 0 1-.244-1.27c0-.767.186-1.49.557-2.167a7.207 7.207 0 0 1 1.474-1.856 10.898 10.898 0 0 1 2.13-1.504 17.17 17.17 0 0 1 2.5-1.123c.859-.306 1.721-.54 2.587-.703.866-.163 1.67-.244 2.412-.244 1.368 0 2.536.182 3.506.547.97.365 1.758.895 2.363 1.592.606.696 1.049 1.54 1.329 2.53.28.989.42 2.108.42 3.358 0 .86-.036 1.804-.108 2.832a288.836 288.836 0 0 1-.244 3.233 166.237 166.237 0 0 0-.244 3.486 59.882 59.882 0 0 0-.108 3.574c0 1.875.349 3.285 1.045 4.229.697.944 1.612 1.416 2.744 1.416 1.003 0 2.123-.371 3.36-1.113l.566.84c-.872.872-1.823 1.536-2.851 1.992a7.917 7.917 0 0 1-3.243.683 6.254 6.254 0 0 1-2.343-.43 5.024 5.024 0 0 1-1.856-1.279c-.52-.566-.924-1.279-1.21-2.138-.287-.86-.43-1.856-.43-2.989 0-.338.01-.677.029-1.015.02-.339.062-.697.127-1.074h-.117a29.254 29.254 0 0 1-1.944 3.31 18.42 18.42 0 0 1-2.422 2.91 12.316 12.316 0 0 1-2.812 2.07 6.61 6.61 0 0 1-3.135.792c-.898 0-1.719-.157-2.46-.47a5.662 5.662 0 0 1-1.905-1.288 5.82 5.82 0 0 1-1.23-1.944 6.67 6.67 0 0 1-.44-2.45c0-1.147.212-2.188.635-3.126a8.377 8.377 0 0 1 1.758-2.52c.748-.742 1.644-1.383 2.685-1.923 1.042-.54 2.175-.99 3.399-1.348a25.334 25.334 0 0 1 3.886-.8 32.746 32.746 0 0 1 4.18-.264c.091-.82.166-1.615.225-2.383.058-.768.088-1.615.088-2.54zM78.652 48.34c0 .508.056.993.166 1.455.111.462.287.87.528 1.22.24.352.547.629.918.83.37.203.817.303 1.338.303.586 0 1.191-.136 1.816-.41a8.352 8.352 0 0 0 1.846-1.133 11.763 11.763 0 0 0 1.738-1.728 14.639 14.639 0 0 0 1.494-2.197c.443-.795.81-1.631 1.104-2.51.293-.879.485-1.78.576-2.705-.964.026-1.92.088-2.871.185-.95.098-1.853.251-2.705.46-.853.208-1.644.481-2.373.82a6.964 6.964 0 0 0-1.885 1.26 5.431 5.431 0 0 0-1.24 1.777c-.3.683-.45 1.474-.45 2.373zm34.356-35.567a100.234 100.234 0 0 0-1.377 7.666 203.418 203.418 0 0 0-.947 7.803c.612.026 1.207.046 1.787.059l1.62.039c.502.013.958.02 1.368.02h1.025c1.185 0 2.155-.072 2.91-.215.066.22.118.423.157.605.039.182.058.352.058.508 0 .573-.237.944-.713 1.113-.475.17-1.162.254-2.06.254-.86 0-1.82-.052-2.88-.156a136.324 136.324 0 0 0-3.487-.293c-.143 1.393-.264 2.75-.362 4.072a157.9 157.9 0 0 0-.234 3.74c-.059 1.172-.1 2.26-.127 3.262a102.52 102.52 0 0 0-.039 2.617c0 1.393.072 2.637.215 3.73.143 1.094.397 2.022.762 2.784.364.762.865 1.344 1.504 1.748.638.404 1.445.605 2.421.605.704 0 1.488-.123 2.354-.37.866-.248 1.852-.645 2.959-1.192.351.351.553.781.605 1.289a29.748 29.748 0 0 1-2.441 1.455c-.82.436-1.628.81-2.422 1.123a16.07 16.07 0 0 1-2.305.723 9.498 9.498 0 0 1-2.109.254c-.872 0-1.67-.16-2.393-.479-.722-.319-1.347-.885-1.875-1.7-.527-.813-.937-1.91-1.23-3.29-.293-1.38-.44-3.125-.44-5.234 0-1.185.02-2.406.06-3.663.038-1.256.09-2.529.155-3.818.065-1.289.15-2.578.254-3.867.104-1.29.222-2.559.352-3.809a41.906 41.906 0 0 0-2.862.127c-.878.072-1.63.186-2.255.342a.604.604 0 0 1-.059-.273c0-.274.133-.531.4-.772.267-.24.638-.459 1.114-.654a9.177 9.177 0 0 1 1.709-.488c.664-.13 1.393-.222 2.187-.274.3-2.721.619-5.293.957-7.715.339-2.422.677-4.583 1.016-6.484.065-.339.185-.619.361-.84.176-.221.381-.397.615-.527.235-.13.489-.222.762-.274a4.554 4.554 0 0 1 1.963.059c.345.091.667.221.967.39zm15.312 5.918a2.52 2.52 0 0 1-1.21-.283 2.918 2.918 0 0 1-.9-.742 3.29 3.29 0 0 1-.565-1.055 3.894 3.894 0 0 1-.196-1.22c0-.586.098-1.104.293-1.553.196-.45.45-.827.762-1.133a3.115 3.115 0 0 1 2.148-.908c.443 0 .84.081 1.192.244.351.163.654.387.908.674.254.286.45.615.586.986.137.371.205.772.205 1.201 0 .456-.078.909-.234 1.358-.157.449-.375.856-.655 1.22-.28.365-.618.658-1.015.88a2.662 2.662 0 0 1-1.319.331zm1.7 8.829c-.222 1.484-.41 2.972-.567 4.462a126.2 126.2 0 0 0-.38 4.327c-.098 1.393-.17 2.711-.216 3.955a92.795 92.795 0 0 0-.01 6.855c.04.97.105 1.787.196 2.451.091.664.205 1.195.342 1.592.136.397.306.703.508.918.201.215.436.355.703.42.267.065.57.098.908.098.625 0 1.299-.095 2.021-.284a13.557 13.557 0 0 0 2.198-.79l.37 1.015c-.468.378-1.057.762-1.767 1.152-.71.391-1.455.75-2.236 1.075-.781.325-1.546.589-2.295.79-.749.202-1.397.303-1.943.303-.365 0-.697-.029-.997-.088-.299-.058-.57-.205-.81-.439-.241-.234-.456-.58-.645-1.035-.188-.456-.345-1.074-.468-1.856-.124-.78-.218-1.757-.284-2.93a78.522 78.522 0 0 1-.097-4.257c0-.977.01-2.08.03-3.31a338.109 338.109 0 0 1 .243-8.438c.065-1.57.15-3.187.254-4.854.026-.364.124-.66.293-.888.17-.228.378-.404.625-.528.247-.123.511-.208.791-.254a4.83 4.83 0 0 1 .772-.068c.872 0 1.692.202 2.46.606zm13.964 28.164c-.169-1.25-.37-2.562-.605-3.936-.234-1.374-.485-2.76-.752-4.16a186.89 186.89 0 0 0-1.719-8.057 146.579 146.579 0 0 0-.85-3.418 64.492 64.492 0 0 0-.761-2.695 18.19 18.19 0 0 0-.703-1.885c-.222-.488-.453-.872-.694-1.152-.24-.28-.504-.472-.79-.576a2.846 2.846 0 0 0-.977-.157c-.417 0-.863.046-1.338.137-.475.091-1.045.215-1.71.371l-.292-1.406a60.47 60.47 0 0 1 2.295-.791c.749-.24 1.442-.446 2.08-.615.638-.17 1.204-.3 1.7-.39.494-.092.885-.138 1.171-.138.352 0 .674.062.967.186.293.124.576.335.85.635.273.3.533.706.78 1.22.248.515.496 1.163.743 1.944.17.52.368 1.194.596 2.021.227.827.465 1.768.713 2.823.247 1.054.504 2.197.771 3.427a140.849 140.849 0 0 1 1.465 7.832c.215 1.361.4 2.699.556 4.014a136.47 136.47 0 0 0 1.963-2.95 75.354 75.354 0 0 0 1.895-3.085 50.927 50.927 0 0 0 1.69-3.154c.52-1.062.976-2.113 1.367-3.155.39-1.041.696-2.064.917-3.066.222-1.003.333-1.973.333-2.91a8.829 8.829 0 0 0-.616-3.301c-.41-1.029-1.11-1.934-2.1-2.715l.216-.469c.234-.026.462-.045.683-.058.221-.013.436-.02.645-.02 1.744 0 3.06.41 3.945 1.23.885.82 1.328 1.96 1.328 3.419 0 1.106-.234 2.366-.703 3.779a34.547 34.547 0 0 1-1.856 4.443 63.38 63.38 0 0 1-2.617 4.737 110.214 110.214 0 0 1-2.988 4.658 133.371 133.371 0 0 1-2.969 4.209 152.828 152.828 0 0 1-2.558 3.388l-2.07-.214zm38.301-6.739c.078.04.18.095.303.166.124.072.238.15.342.235.104.084.195.175.273.273a.459.459 0 0 1 .117.283.26.26 0 0 1-.058.157 16.113 16.113 0 0 1-2.354 2.646 14.493 14.493 0 0 1-2.617 1.875c-.905.501-1.826.872-2.764 1.113-.937.241-1.862.362-2.773.362-1.563 0-2.995-.32-4.297-.957a10.29 10.29 0 0 1-3.36-2.618c-.937-1.106-1.67-2.405-2.197-3.896-.527-1.49-.79-3.09-.79-4.795 0-1.393.152-2.786.458-4.18a19.617 19.617 0 0 1 1.328-3.984 18.358 18.358 0 0 1 2.12-3.525 14.817 14.817 0 0 1 2.841-2.832 13.137 13.137 0 0 1 3.497-1.885c1.27-.456 2.633-.684 4.091-.684.964 0 1.882.13 2.754.39.873.261 1.638.636 2.295 1.124a5.514 5.514 0 0 1 1.572 1.807c.391.716.586 1.53.586 2.44 0 1.33-.433 2.488-1.298 3.477-.866.99-2.061 1.83-3.584 2.52-1.524.69-3.318 1.247-5.381 1.67a58.668 58.668 0 0 1-6.69.947v.332c0 1.667.212 3.19.635 4.57.423 1.38 1.006 2.562 1.748 3.545.742.984 1.615 1.749 2.617 2.295a6.665 6.665 0 0 0 3.242.82c1.172 0 2.373-.289 3.604-.868 1.23-.58 2.477-1.52 3.74-2.823zm-3.672-15.683c0-.6-.1-1.16-.302-1.68a4.184 4.184 0 0 0-.84-1.357 3.912 3.912 0 0 0-2.881-1.24c-.847 0-1.615.15-2.305.449-.69.3-1.308.706-1.855 1.22a8.577 8.577 0 0 0-1.446 1.797c-.416.684-.771 1.41-1.064 2.178-.293.768-.53 1.556-.713 2.363a19.852 19.852 0 0 0-.39 2.363c1.848-.13 3.505-.354 4.97-.673 1.465-.32 2.702-.73 3.711-1.23 1.01-.502 1.78-1.101 2.315-1.798.533-.696.8-1.494.8-2.392zM190 47.949c.091.99.355 1.843.791 2.559a5.896 5.896 0 0 0 1.611 1.758 6.857 6.857 0 0 0 2.12 1.015 8.392 8.392 0 0 0 2.314.332c.716 0 1.406-.097 2.07-.293a5.785 5.785 0 0 0 1.758-.84 4.236 4.236 0 0 0 1.22-1.347 3.548 3.548 0 0 0 .46-1.797c0-.69-.163-1.296-.489-1.816a5.592 5.592 0 0 0-1.308-1.426 11.343 11.343 0 0 0-1.904-1.192c-.723-.364-1.475-.735-2.256-1.113-.69-.325-1.384-.654-2.08-.986a23.98 23.98 0 0 1-2.022-1.084 16.22 16.22 0 0 1-1.826-1.27 8.81 8.81 0 0 1-1.484-1.513 6.694 6.694 0 0 1-.996-1.856c-.241-.684-.362-1.442-.362-2.275 0-.899.156-1.726.469-2.48a7.146 7.146 0 0 1 1.28-2.042 9.055 9.055 0 0 1 1.874-1.592c.71-.455 1.468-.836 2.276-1.142a13.69 13.69 0 0 1 2.49-.684 14.39 14.39 0 0 1 2.49-.224c1.042 0 2.028.114 2.96.341.93.228 1.744.56 2.44.997.697.436 1.25.966 1.66 1.591a3.76 3.76 0 0 1 .616 2.11c0 .3-.052.625-.156.976-.105.352-.28.68-.528.987a3.004 3.004 0 0 1-.976.771c-.404.208-.899.32-1.485.332-.547 0-1.12-.085-1.718-.254l-.059-.195c.182-.417.313-.8.39-1.152.079-.352.118-.678.118-.977-.013-.599-.166-1.104-.46-1.514a3.553 3.553 0 0 0-1.103-1.006 4.96 4.96 0 0 0-1.474-.566 7.497 7.497 0 0 0-1.592-.176c-.925 0-1.751.124-2.48.371-.73.248-1.345.577-1.846.987-.502.41-.886.875-1.153 1.396-.267.521-.4 1.061-.4 1.621 0 .716.189 1.358.566 1.924.378.566.88 1.087 1.504 1.563.625.475 1.345.92 2.159 1.337.813.417 1.663.834 2.548 1.25.99.47 1.973.954 2.95 1.456a14.295 14.295 0 0 1 2.617 1.709 8.077 8.077 0 0 1 1.865 2.197c.475.827.713 1.8.713 2.92 0 1.34-.296 2.532-.889 3.574a8.273 8.273 0 0 1-2.373 2.637c-.99.716-2.125 1.26-3.408 1.63a14.298 14.298 0 0 1-3.994.557 15.255 15.255 0 0 1-4.278-.625 12.684 12.684 0 0 1-1.962-.771 7.737 7.737 0 0 1-1.622-1.055 4.764 4.764 0 0 1-1.093-1.328 3.304 3.304 0 0 1-.4-1.611c0-.508.107-.938.322-1.29.214-.351.498-.638.85-.859a4.088 4.088 0 0 1 1.18-.498c.437-.11.883-.172 1.339-.185l.156.136z" fill="#FFF" fill-rule="evenodd"/>
</svg>
