<svg xmlns="http://www.w3.org/2000/svg" viewBox="0 0 200 45">
  <path fill="#3C3C3C" d="M55.98 30.695v-3.591c.673.47 1.172.767 1.612.988.435.216.878.308 1.316.308 1.547 0 2.37-.835 2.37-2.398V13.767h4.088v12.411c0 1.934-.522 3.327-1.565 4.176-1.042.85-2.329 1.274-3.859 1.274-1.312 0-2.634-.311-3.962-.933m11.847-8.176c0-6.265 2.844-9.109 7.599-9.109 5.259 0 7.725 2.994 7.725 9.109 0 6.543-2.893 9.109-7.624 9.109-5.007 0-7.7-2.868-7.7-9.109m11.075 0c0-4.121-1.107-5.82-3.477-5.82-2.24 0-3.374 1.776-3.374 5.82 0 4.045 1.262 5.82 3.529 5.82 2.215 0 3.322-1.673 3.322-5.82m6.719-8.759h4.052v7.091h5.434V13.76h4.077v17.519h-4.077v-6.961h-5.434v6.961h-4.052V13.76zm30.523 17.518l-5.411-17.518h-4.302l-5.568 17.518h3.717l.979-3.39h5.541l.993 3.39h4.051zm-5.961-6.517h-3.721l1.846-6.398 1.875 6.398zm37.905-11.001v17.519h-3.343l-6.142-10.664v10.664h-4.053V13.76h3.764l5.723 10.427V13.76h4.051zm-16.728 0v17.519h-3.34l-6.144-10.664v10.664h-4.053V13.76h3.764l5.722 10.427V13.76h4.051zm19.923 0h4.049v17.519h-4.049V13.76zm10.663 3.075h-4.599V13.76h13.354v3.075h-4.678v14.443h-4.077V16.835zm33.894 7.472c1.079-.349 1.977-.915 2.604-1.884.63-.971.906-1.984.906-3.121 0-1.836-.553-3.218-1.653-4.145-1.104-.927-2.658-1.397-4.668-1.397h-7.019v17.518h4.026v-6.442h1.778l3.321 6.443h4.845l-4.14-6.972zm-3.052-2.646h-2.752v-4.824h2.935c.607 0 1.264.159 1.68.575.385.383.578 1.043.578 1.778 0 1.581-.814 2.471-2.441 2.471m-20.121 9.618h10.306V28.2h-6.255v-4.142h5.231v-3.105h-5.231v-4.116h6.255V13.76h-10.306v17.519zM22.5.019c12.415 0 22.48 10.065 22.48 22.48 0 12.415-10.065 22.48-22.48 22.48-12.415 0-22.48-10.065-22.48-22.48C.02 10.084 10.085.019 22.5.019zm0 22.48l-7.071 18.174 7.071-6.845 7.071 6.845L22.5 22.499zM4.327 15.428l6.844 7.071-6.844 7.072L22.5 22.499 4.327 15.428zm36.346 0L22.5 22.499l18.173 7.072-6.844-7.072 6.844-7.071zM29.571 4.326L22.5 11.17l-7.071-6.844L22.5 22.498l7.071-18.172z"/>
</svg>
