<svg xmlns="http://www.w3.org/2000/svg" viewBox="0 0 270 343">
  <g fill="#3C3C3C">
    <path d="M35.2 315.9c0 9-6 14.5-15.7 14.5H11v10.8H.1v-39.9h19.3c9.8.1 15.8 5.6 15.8 14.6zm-10.8.1c0-3.1-2.1-5.1-5.4-5.1h-8.2v10.3H19c3.3-.1 5.4-2.1 5.4-5.2zM75 328.4h-4v12.9H60.2v-39.9H80c8.8 0 14.5 5.6 14.5 13.7 0 5.9-2.9 10.2-8.4 12.3l10.9 14H84.3l-9.3-13zm3.3-18h-7.4v9.7h7.4c3.6 0 5.5-1.7 5.5-4.8.1-3.2-1.9-4.9-5.5-4.9zm74.3 22v8.9h-31v-39.9h31v8.8H132v6.7h20.5v8.4H132v7.1h20.6zm24.7 4.2l5.6-7.8c3.5 2.7 7.3 3.9 11.8 3.9 4.1 0 6.6-1.4 6.6-3.6s-2.1-3.4-7-3.8c-10.9-1-15.8-4.8-15.8-12.1 0-7.8 6.7-12.9 16.9-12.9 5.7 0 11.2 1.6 15.2 4.4l-5 7.6c-2.9-1.9-6.2-3-9.7-3-4.3 0-7 1.3-7 3.4 0 2.2 1.8 3.1 6.9 3.6 10.5 1.1 16.1 5.5 16.1 12.9 0 7.8-7 13-17.2 13-6.7.1-13.2-2-17.4-5.6zm57.6 0l5.6-7.8c3.5 2.7 7.3 3.9 11.8 3.9 4.1 0 6.6-1.4 6.6-3.6s-2.1-3.4-7-3.8c-10.9-1-15.8-4.8-15.8-12.1 0-7.8 6.7-12.9 16.9-12.9 5.7 0 11.2 1.6 15.2 4.4l-5 7.6c-2.9-1.9-6.2-3-9.7-3-4.3 0-7 1.3-7 3.4 0 2.2 1.8 3.1 6.9 3.6 10.5 1.1 16.1 5.5 16.1 12.9 0 7.8-7 13-17.2 13-6.6.1-13.1-2-17.4-5.6zM195.1 195.1h73.1v73.1h-73.1zM122 .1v24.4H24.5v24.4H122v24.4H24.5v24.4H122V122H.1V.1H122zm24.3 0V122h24.4V24.5h24.4V122h24.4V24.5h24.4V122h24.4V.1h-122zM.1 146.3v73.1h97.5v24.4H.1v24.4H122v-73.1H24.5v-24.4H122v-24.4H.1z"/>
  </g>
</svg>

