<svg width="67" height="29" viewBox="0 0 67 29" xmlns="http://www.w3.org/2000/svg"><path d="M66.486 0l-6.375 29.19H0V0h66.486zM42.939 6.487h-2.38v16.46s3.845.567 7.145.567c6.044 0 7.693-1.324 7.693-1.324s.549-.946.549-4.54c0-3.596-.549-4.352-.549-4.352s-2.748-1.703-8.427-1.703c-1.1 0-2.565.188-4.031.378V6.487zm-18.135 0h-2.38v16.46s3.846.567 7.143.567c6.047 0 7.695-1.324 7.695-1.324s.549-.946.549-4.54c0-3.596-.549-4.352-.549-4.352s-2.748-1.703-8.427-1.703c-1.1 0-2.565.188-4.031.378V6.487zm-5.128 5.297c-9.525.189-13.19 2.461-13.19 2.461v9.08h2.566v-7.378c1.099-.38 4.396-1.514 10.624-1.514zm5.128 3.027c5.313-.946 8.976 0 10.442.568 0 .568.183 1.513.183 2.46 0 .945-.183 1.891-.183 2.458-.732.191-2.38.57-5.679.57-1.281 0-2.929 0-4.763-.19zm18.135 0c5.313-.946 8.976 0 10.442.568 0 .568.183 1.513.183 2.46 0 .945-.183 1.891-.183 2.458-.915.191-2.564.57-5.677.57-1.283 0-2.932 0-4.765-.19z" fill="#3C3C3C" fill-rule="nonzero"/></svg>