<svg width="128" height="60" xmlns="http://www.w3.org/2000/svg">
  <path d="M27.379 55.645a163.441 163.441 0 0 0-1.328-7.686c-.521-2.65-1.094-5.316-1.719-7.998a56.892 56.892 0 0 1-1.21 2.549c-.457.905-.942 1.836-1.456 2.793-.514.957-1.051 1.92-1.611 2.89-.56.97-1.117 1.914-1.67 2.832-.554.918-1.1 1.794-1.64 2.627a63.772 63.772 0 0 1-1.534 2.266l-2.129-.234c-.17-1.25-.368-2.562-.596-3.936a215.937 215.937 0 0 0-1.543-8.291c-.28-1.354-.56-2.64-.84-3.857-.28-1.218-.55-2.338-.81-3.36a54.97 54.97 0 0 0-.723-2.607 20.4 20.4 0 0 0-.732-2.031c-.228-.521-.462-.925-.703-1.211-.241-.287-.498-.482-.772-.586a2.62 2.62 0 0 0-.937-.157c-.417 0-.863.046-1.338.137-.475.091-1.045.215-1.71.371l-.292-1.406c1.745-.625 3.255-1.104 4.531-1.436 1.276-.332 2.188-.498 2.735-.498.325 0 .634.059.927.176.293.117.57.32.83.606s.515.677.762 1.172c.247.494.488 1.12.723 1.875.169.546.364 1.23.586 2.05.221.82.452 1.742.693 2.764.24 1.022.492 2.126.752 3.31.26 1.185.514 2.416.762 3.692.247 1.276.485 2.575.713 3.896.227 1.322.433 2.634.615 3.936.286-.443.618-.99.996-1.64.378-.652.771-1.355 1.182-2.11.41-.755.82-1.533 1.23-2.334.41-.8.791-1.579 1.143-2.334.351-.755.657-1.458.918-2.11.26-.65.449-1.204.566-1.66a6.78 6.78 0 0 0 .166-.927 8.58 8.58 0 0 0 .049-.908c0-.404-.026-.837-.078-1.3-.052-.462-.12-.927-.205-1.396a35.827 35.827 0 0 0-.284-1.406 51.979 51.979 0 0 0-.312-1.328c-.091-.352-.137-.632-.137-.84 0-.417.134-.739.4-.967.268-.228.713-.342 1.338-.342.417 0 .844.056 1.28.166.436.111.843.264 1.22.46a470.832 470.832 0 0 1 2.568 10.479c.424 1.815.824 3.619 1.202 5.41.378 1.79.716 3.511 1.016 5.165a145.466 145.466 0 0 0 2.685-4.434 50.758 50.758 0 0 0 2.344-4.521 31.239 31.239 0 0 0 1.65-4.482c.417-1.485.625-2.93.625-4.336 0-.586-.039-1.156-.117-1.71a7.603 7.603 0 0 0-.4-1.591 6.191 6.191 0 0 0-.772-1.445 6.27 6.27 0 0 0-1.23-1.27l.215-.469c.234-.026.462-.045.683-.058.222-.013.436-.02.645-.02 1.732 0 3.01.41 3.838 1.23.826.82 1.24 1.96 1.24 3.419 0 1.106-.218 2.36-.654 3.76a34.55 34.55 0 0 1-1.739 4.404 66.708 66.708 0 0 1-2.45 4.697 109.394 109.394 0 0 1-2.804 4.639 132.547 132.547 0 0 1-2.812 4.228 222.389 222.389 0 0 1-2.451 3.467l-2.09-.234zM44.937 43.77c0-1.316.137-2.65.41-4.004a20.693 20.693 0 0 1 1.212-3.936 18.752 18.752 0 0 1 1.982-3.574 14.55 14.55 0 0 1 2.725-2.92 12.498 12.498 0 0 1 3.437-1.973c1.263-.481 2.637-.722 4.121-.722 1.667 0 3.141.351 4.424 1.054 1.283.703 2.36 1.631 3.232 2.784.873 1.152 1.534 2.464 1.983 3.935.45 1.471.674 2.975.674 4.512 0 1.315-.137 2.65-.41 4.004a20.264 20.264 0 0 1-1.221 3.935 19.158 19.158 0 0 1-1.992 3.574 14.55 14.55 0 0 1-2.725 2.92 12.498 12.498 0 0 1-3.437 1.973c-1.263.482-2.637.723-4.122.723-1.666 0-3.14-.352-4.423-1.055a9.985 9.985 0 0 1-3.223-2.783c-.866-1.153-1.523-2.464-1.973-3.936a15.367 15.367 0 0 1-.673-4.511zm4.668-1.856c0 .885.069 1.784.206 2.695.136.912.348 1.79.634 2.637a13.29 13.29 0 0 0 1.065 2.373 8.346 8.346 0 0 0 1.504 1.924c.58.547 1.23.977 1.953 1.289.722.313 1.52.469 2.392.469.95 0 1.787-.205 2.51-.615a6.307 6.307 0 0 0 1.875-1.631 9.355 9.355 0 0 0 1.309-2.325c.345-.872.621-1.774.83-2.705.208-.93.355-1.852.44-2.763.084-.912.126-1.752.126-2.52 0-.898-.068-1.8-.205-2.705a15.057 15.057 0 0 0-.635-2.617 13.404 13.404 0 0 0-1.064-2.363 8.154 8.154 0 0 0-1.504-1.914 6.803 6.803 0 0 0-1.953-1.28c-.723-.312-1.52-.468-2.393-.468-.95 0-1.787.201-2.51.605a6.183 6.183 0 0 0-1.874 1.621 9.355 9.355 0 0 0-1.309 2.324c-.345.873-.622 1.771-.83 2.696a21.57 21.57 0 0 0-.44 2.763 27.533 27.533 0 0 0-.127 2.51zM76.48 55.508l-.312-.02c.104-1.237.202-2.584.293-4.043.091-1.458.176-2.94.254-4.443.078-1.504.146-2.995.205-4.473.059-1.478.11-2.858.156-4.14.046-1.283.078-2.432.098-3.448.02-1.015.03-1.816.03-2.402 0-.482-.02-.898-.06-1.25-.039-.352-.126-.644-.263-.879a1.222 1.222 0 0 0-.596-.517c-.26-.111-.612-.166-1.055-.166-.22 0-.449.013-.683.039-.235.026-.495.065-.781.117-.287.052-.61.12-.967.205-.358.085-.772.185-1.24.303l-.293-1.407c2.161-.78 3.912-1.331 5.254-1.65 1.34-.319 2.246-.479 2.714-.479.86 0 1.475.251 1.846.752.371.502.557 1.247.557 2.237 0 .09-.013.358-.04.8a483.113 483.113 0 0 1-.273 4.2 326.781 326.781 0 0 1-.84 9.863l.196.02a72.694 72.694 0 0 1 2.119-7.14c.788-2.206 1.673-4.123 2.656-5.751.983-1.628 2.064-2.907 3.242-3.838 1.179-.93 2.471-1.396 3.877-1.396.495 0 .957.078 1.387.234.43.156.8.374 1.113.654.313.28.56.612.742.996a2.9 2.9 0 0 1 .274 1.26c0 .586-.127 1.15-.381 1.69s-.654 1.018-1.201 1.435h-.156c-.547-.456-1.065-.784-1.553-.986a4.025 4.025 0 0 0-1.553-.303c-.586 0-1.152.11-1.7.332a4.996 4.996 0 0 0-1.503.957c-.742.677-1.432 1.572-2.07 2.686a27.53 27.53 0 0 0-1.748 3.7 47.497 47.497 0 0 0-1.426 4.268 71.031 71.031 0 0 0-1.094 4.356 64.959 64.959 0 0 0-.742 3.984 55.465 55.465 0 0 0-.4 3.135l-4.083.508zm31.543-13.086a30.165 30.165 0 0 0 4.278-1.777c1.289-.665 2.399-1.374 3.33-2.13.93-.755 1.65-1.549 2.158-2.382.508-.834.762-1.686.762-2.559a2.438 2.438 0 0 0-.752-1.787 2.41 2.41 0 0 0-.801-.498 2.734 2.734 0 0 0-.986-.176c-.82 0-1.67.254-2.55.762-.878.508-1.75 1.243-2.616 2.207-.866.964-1.71 2.142-2.53 3.535-.82 1.393-1.582 2.975-2.285 4.746a51.322 51.322 0 0 0-1.894 5.84A58.671 58.671 0 0 0 102.789 55l-3.945.508-.313-.02c.078-1.536.166-3.232.264-5.088l.312-5.908c.111-2.083.228-4.254.352-6.513.124-2.26.247-4.561.371-6.905.124-2.344.25-4.707.38-7.09.131-2.382.258-4.736.382-7.06a11631.938 11631.938 0 0 0 .693-13.213c.013-.313.104-.583.274-.81.169-.228.387-.41.654-.547.267-.137.57-.238.908-.303.339-.065.69-.098 1.055-.098.781 0 1.601.208 2.46.625a1084.968 1084.968 0 0 0-1.435 13.545c-.189 1.908-.361 3.691-.517 5.352a384.04 384.04 0 0 0-.42 4.765 668.884 668.884 0 0 0-.674 8.877l-.322 4.649c-.111 1.601-.232 3.32-.362 5.156l.117.02a46.075 46.075 0 0 1 1.66-4.59 41.962 41.962 0 0 1 2.11-4.307 31.982 31.982 0 0 1 2.48-3.77c.886-1.152 1.81-2.145 2.774-2.978.963-.833 1.96-1.488 2.988-1.963 1.029-.475 2.07-.713 3.125-.713.664 0 1.276.108 1.836.322.56.215 1.045.521 1.455.918.41.397.73.876.957 1.436.228.56.342 1.185.342 1.875 0 1.08-.234 2.129-.703 3.144-.469 1.016-1.133 1.993-1.992 2.93-.86.938-1.892 1.826-3.096 2.666a29.825 29.825 0 0 1-4.014 2.334 96.474 96.474 0 0 0 2.354 4.111 42.545 42.545 0 0 0 1.894 2.872c.567.774 1.078 1.39 1.534 1.845.455.456.875.801 1.26 1.035.383.235.745.388 1.083.46.339.071.677.107 1.016.107.677 0 1.38-.104 2.11-.313.728-.208 1.464-.481 2.206-.82l.371 1.016c-.468.377-1.06.761-1.777 1.152-.716.39-1.475.749-2.275 1.074-.801.326-1.595.59-2.383.791-.788.202-1.481.303-2.08.303-.703 0-1.403-.257-2.1-.772-.696-.514-1.445-1.311-2.246-2.392-.8-1.08-1.683-2.451-2.646-4.111-.964-1.66-2.07-3.643-3.32-5.948l.077-.234z" fill="#FFF" fill-rule="evenodd"/>
</svg>
