<svg xmlns="http://www.w3.org/2000/svg" width="149.948" height="43.987" viewBox="0 0 149.948 43.987">
  <g fill="#FFF">
    <path d="M12.461 11.807c-.074 0-.15.002-.228.007a5.404 5.404 0 0 0-.242.021l-.076.165c.175.139.32.288.436.45.115.161.206.332.273.511.066.18.114.367.142.563.028.196.042.397.042.605 0 .498-.074 1.009-.221 1.534s-.343 1.054-.584 1.586a17.819 17.819 0 0 1-.829 1.6 51.349 51.349 0 0 1-.95 1.569 67.06 67.06 0 0 0-.359-1.828 96.898 96.898 0 0 0-.425-1.915 158.03 158.03 0 0 0-.909-3.708 2.084 2.084 0 0 0-.432-.163 1.795 1.795 0 0 0-.453-.059c-.221 0-.379.04-.473.121a.425.425 0 0 0-.142.342c0 .074.016.172.048.297a15.206 15.206 0 0 1 .211.967c.03.166.054.331.073.495.019.164.027.317.027.459 0 .106-.005.213-.017.321a2.408 2.408 0 0 1-.059.328 4.919 4.919 0 0 1-.201.588c-.093.231-.201.479-.325.746-.125.268-.259.543-.404.826a38.93 38.93 0 0 1-.855 1.575c-.134.23-.251.424-.353.58-.064-.46-.137-.925-.218-1.392a73 73 0 0 0-.252-1.378 52.203 52.203 0 0 0-.27-1.307c-.092-.419-.181-.81-.266-1.171a29.398 29.398 0 0 0-.453-1.704 4.486 4.486 0 0 0-.256-.664 1.82 1.82 0 0 0-.27-.414.81.81 0 0 0-.293-.215.867.867 0 0 0-.329-.062c-.193 0-.516.059-.967.176-.45.118-.985.287-1.602.508l.104.498c.235-.055.436-.099.604-.131.168-.032.326-.049.473-.049.125 0 .235.019.332.056a.674.674 0 0 1 .273.208c.085.101.168.244.249.428s.167.424.259.719c.079.253.164.562.256.923s.188.758.287 1.188a75.711 75.711 0 0 1 .843 4.299c.081.486.151.95.211 1.392l.753.083c.17-.239.352-.506.543-.801.191-.294.384-.605.581-.929.196-.325.393-.659.59-1.002a38 38 0 0 0 1.085-2.011c.161-.32.304-.621.429-.902.221.949.424 1.893.608 2.83s.341 1.844.47 2.719l.739.083c.253-.35.542-.759.867-1.227.325-.467.657-.966.995-1.496.339-.53.669-1.077.992-1.642.322-.564.611-1.118.867-1.662.255-.544.46-1.063.615-1.559.154-.495.231-.938.231-1.33 0-.516-.146-.919-.439-1.209-.291-.291-.743-.436-1.356-.436zM26.841 21.178a2.115 2.115 0 0 1-.546.229 1.198 1.198 0 0 1-.314.041 1.05 1.05 0 0 1-.536-.155c-.177-.104-.335-.293-.473-.567-.138-.274-.251-.65-.338-1.127-.088-.477-.131-1.091-.131-1.842a52.82 52.82 0 0 1 .083-2.74c.028-.49.059-.981.093-1.472.035-.491.073-.956.114-1.393l-.111-.007-1.465.18a17.338 17.338 0 0 1-.505 3.272c-.263 1.012-.581 1.923-.954 2.734s-.765 1.427-1.175 1.849c-.411.421-.811.632-1.202.632-.346 0-.623-.126-.83-.38-.208-.253-.311-.654-.311-1.203 0-.184.01-.414.031-.688.021-.273.046-.574.076-.901l.097-1.04c.035-.367.067-.734.097-1.103s.055-.732.076-1.089c.021-.357.031-.692.031-1.005 0-.208-.013-.392-.038-.553-.025-.162-.07-.3-.135-.415a.68.68 0 0 0-.255-.263.822.822 0 0 0-.408-.089c-.083 0-.213.016-.391.048-.177.032-.394.081-.649.145-.255.065-.546.146-.871.245-.324.1-.676.216-1.053.349l.104.498c.276-.078.54-.141.791-.186a3.55 3.55 0 0 1 .612-.069c.157 0 .28.023.37.069a.456.456 0 0 1 .204.214c.047.097.076.219.09.366s.021.323.021.525c0 .502-.019 1.01-.055 1.524a78.197 78.197 0 0 1-.121 1.493c-.044.481-.084.936-.121 1.361-.037.427-.055.801-.055 1.123 0 .493.056.908.169 1.244.113.336.264.606.453.812.188.205.404.352.646.442.242.09.494.135.757.135.35 0 .719-.103 1.105-.307.387-.206.773-.547 1.158-1.026.385-.479.76-1.11 1.126-1.894.366-.783.706-1.753 1.02-2.91l.076.014c-.042.314-.077.601-.107.86-.03.261-.054.504-.073.729a16.238 16.238 0 0 0-.055 1.245c0 .618.059 1.134.176 1.548.117.414.273.747.467.995.193.25.416.427.667.533.251.105.51.159.777.159.212 0 .421-.025.629-.076s.406-.121.594-.21a3.573 3.573 0 0 0 .996-.708l-.228-.319-.2.124zM37.578 21.105a2.963 2.963 0 0 1-.746.101c-.166 0-.307-.024-.422-.072a.563.563 0 0 1-.277-.271 1.642 1.642 0 0 1-.148-.535 6.953 6.953 0 0 1-.044-.878c0-.208.007-.45.024-.729a52.153 52.153 0 0 1 .139-1.824 68.807 68.807 0 0 0 .138-1.687c.016-.232.024-.417.024-.556 0-.475-.056-.879-.166-1.214a2.337 2.337 0 0 0-.446-.818 1.683 1.683 0 0 0-.639-.463 1.975 1.975 0 0 0-.747-.145c-.373 0-.765.113-1.175.339-.41.226-.822.593-1.237 1.102-.415.509-.822 1.173-1.224 1.99-.401.818-.776 1.822-1.127 3.01l-.041-.006a94.662 94.662 0 0 0 .217-2.377c.031-.378.057-.734.08-1.068l.059-.888.038-.639a8.6 8.6 0 0 0 .014-.321c0-.387-.075-.66-.225-.819-.15-.159-.358-.238-.625-.238-.11 0-.263.019-.456.055-.193.037-.417.09-.671.159a24.688 24.688 0 0 0-1.776.559l.103.498c.295-.078.558-.141.788-.186.23-.046.428-.069.594-.069.12 0 .224.016.311.048s.16.086.217.163a.77.77 0 0 1 .129.308c.027.129.041.288.041.477a56.164 56.164 0 0 1-.045 2.07c-.016.454-.034.942-.055 1.465a168.707 168.707 0 0 1-.162 3.155c-.033.517-.067.994-.104 1.431l.111.007 1.444-.18c.037-.682.127-1.364.27-2.046.143-.682.322-1.335.539-1.959.216-.624.459-1.205.729-1.742s.55-1.002.844-1.396c.292-.394.586-.704.881-.93.294-.226.576-.339.843-.339.336 0 .605.128.809.384.202.256.304.654.304 1.192 0 .203-.016.474-.045.812-.03.338-.062.715-.1 1.13-.037.414-.071.851-.101 1.31-.03.458-.045.904-.045 1.337 0 .354.011.687.031.995.021.309.067.579.139.809.071.23.179.413.321.546.143.134.339.201.588.201.211 0 .456-.036.733-.107.276-.071.553-.165.833-.279a7.83 7.83 0 0 0 .798-.38c.253-.138.463-.274.629-.408l-.131-.359a5.146 5.146 0 0 1-.782.275zM49.517 21.105a2.84 2.84 0 0 1-.715.101c-.12 0-.224-.013-.311-.038a.452.452 0 0 1-.231-.163.987.987 0 0 1-.166-.352 3.613 3.613 0 0 1-.104-.615 14.334 14.334 0 0 1-.056-.947c-.011-.373-.017-.82-.017-1.341 0-1.083.035-2.214.104-3.394.069-1.179.161-2.377.276-3.594.115-1.217.249-2.437.401-3.662.152-1.227.311-2.424.477-3.594a2.002 2.002 0 0 0-.871-.221c-.12 0-.237.012-.352.034a1.163 1.163 0 0 0-.311.107.67.67 0 0 0-.229.193.596.596 0 0 0-.11.287 47.907 47.907 0 0 0-.18 1.824c-.055.682-.106 1.406-.152 2.17a141.68 141.68 0 0 0-.121 2.36c-.035.808-.063 1.604-.086 2.388a4.199 4.199 0 0 0-2.171-.595c-.521 0-1.017.086-1.489.259s-.911.411-1.316.715a5.806 5.806 0 0 0-1.099 1.089 7.322 7.322 0 0 0-.839 1.372 7.524 7.524 0 0 0-.536 1.565 7.547 7.547 0 0 0-.187 1.676c0 .47.046.928.138 1.372.092.445.234.839.425 1.182.191.343.437.62.736.83.299.209.657.314 1.071.314.41 0 .838-.145 1.286-.432.447-.288.892-.699 1.334-1.233.442-.534.872-1.18 1.289-1.935.417-.756.803-1.602 1.158-2.537l.062.013c-.079.475-.135.951-.169 1.428a19.195 19.195 0 0 0-.014 2.608c.025.369.059.691.101.968.032.207.075.377.128.511.053.134.117.24.193.321a.609.609 0 0 0 .273.169c.106.032.23.048.373.048.193 0 .422-.036.688-.107.265-.071.536-.165.812-.279.276-.115.541-.242.792-.38s.459-.274.625-.408l-.131-.359a4.62 4.62 0 0 1-.779.282zm-3.089-6.372c-.145.546-.332 1.099-.56 1.659s-.488 1.105-.781 1.634c-.292.53-.604 1-.933 1.41-.33.41-.667.739-1.012.988s-.684.373-1.016.373a.812.812 0 0 1-.48-.142 1.244 1.244 0 0 1-.349-.377 2.487 2.487 0 0 1-.242-.528 5.013 5.013 0 0 1-.236-1.197 7.03 7.03 0 0 1-.021-.508 6.997 6.997 0 0 1 .449-2.464c.147-.39.334-.754.56-1.092.226-.338.488-.633.788-.885.3-.251.637-.448 1.013-.59s.787-.214 1.233-.214c.613 0 1.23.147 1.852.442-.032.449-.12.946-.265 1.491zM54.736 16.793a8.931 8.931 0 0 0 1.904-.591c.539-.244.961-.542 1.268-.892.307-.35.46-.76.46-1.23 0-.322-.069-.61-.208-.863a1.976 1.976 0 0 0-.556-.64 2.605 2.605 0 0 0-.812-.397 3.394 3.394 0 0 0-.975-.139c-.516 0-.998.081-1.447.242-.45.161-.862.383-1.237.667a5.302 5.302 0 0 0-1.006 1.002 6.55 6.55 0 0 0-.75 1.248 6.97 6.97 0 0 0-.632 2.889c0 .604.093 1.169.28 1.697.186.527.446.986.777 1.378.332.392.728.701 1.189.927.46.226.967.339 1.521.339.322 0 .649-.043.981-.129.332-.085.658-.216.978-.393.321-.177.629-.398.926-.664.297-.265.575-.577.833-.937a.093.093 0 0 0 .021-.056.167.167 0 0 0-.042-.101.684.684 0 0 0-.097-.097.89.89 0 0 0-.121-.083c-.044-.025-.079-.045-.107-.059-.447.461-.888.793-1.323.999a2.985 2.985 0 0 1-1.275.307c-.411 0-.793-.097-1.147-.29a2.898 2.898 0 0 1-.926-.812 3.983 3.983 0 0 1-.618-1.254 5.486 5.486 0 0 1-.225-1.617v-.118a20.125 20.125 0 0 0 2.366-.333zm-2.187-1.109c.064-.285.148-.564.252-.836s.229-.528.376-.771c.147-.242.318-.454.512-.636.193-.182.412-.325.657-.431.244-.106.516-.159.815-.159a1.383 1.383 0 0 1 1.019.439c.127.136.226.296.297.48.071.184.107.383.107.594 0 .318-.095.601-.284.847-.189.247-.462.458-.819.636a5.67 5.67 0 0 1-1.313.435c-.518.113-1.104.193-1.758.238.028-.271.074-.55.139-.836zM67.809 12.674a1.099 1.099 0 0 0-.262-.352 1.197 1.197 0 0 0-.394-.232 1.41 1.41 0 0 0-.491-.083c-.498 0-.956.165-1.372.494-.417.33-.8.782-1.147 1.358a11.268 11.268 0 0 0-.94 2.035 25.893 25.893 0 0 0-.75 2.526l-.069-.007a98.96 98.96 0 0 0 .218-2.422c.03-.38.057-.736.08-1.068l.059-.875a101.584 101.584 0 0 0 .052-.894c0-.35-.065-.614-.197-.792-.132-.178-.349-.266-.653-.266-.166 0-.486.057-.96.169-.475.113-1.094.308-1.859.584l.104.498c.166-.042.312-.078.439-.107a5.972 5.972 0 0 1 .618-.114c.083-.009.164-.014.242-.014.156 0 .281.02.373.059.092.039.162.1.21.183.048.083.08.186.093.311.014.125.021.272.021.442 0 .208-.003.491-.01.85s-.019.766-.035 1.22c-.016.454-.035.942-.055 1.466a168.707 168.707 0 0 1-.162 3.154c-.033.516-.067.993-.104 1.43l.111.007 1.444-.18a22.758 22.758 0 0 1 .405-2.519c.108-.5.237-1.013.387-1.541.15-.527.318-1.031.504-1.51.187-.479.393-.916.619-1.31s.47-.71.733-.95c.161-.147.338-.261.532-.338.194-.078.394-.118.602-.118.194 0 .377.036.549.107.172.071.356.187.549.349h.056c.193-.147.335-.317.425-.508.09-.19.135-.39.135-.597a1.079 1.079 0 0 0-.1-.445zM85.774 19.427a27.223 27.223 0 0 1-1.434-1.642 24.797 24.797 0 0 1-1.296-1.769 18.576 18.576 0 0 1-1.076-1.822 5.81 5.81 0 0 0-.723.714 4.486 4.486 0 0 0-.927 1.814 4.57 4.57 0 0 0-.131 1.121c0 .743.115 1.385.345 1.926s.528.987.901 1.338c.371.351.789.611 1.256.778a4.166 4.166 0 0 0 2.287.162 4.901 4.901 0 0 0 1.602-.651 4.9 4.9 0 0 0 .677-.522 21.733 21.733 0 0 1-.616-.576 22.985 22.985 0 0 1-.865-.871zM83.157 12.67a5.275 5.275 0 0 0 1.169-.912 5.16 5.16 0 0 0 .781-1.047c.199-.359.345-.712.434-1.062.09-.349.135-.671.135-.965 0-.274-.039-.529-.115-.766a2.04 2.04 0 0 0-.324-.62 1.502 1.502 0 0 0-.514-.416 1.498 1.498 0 0 0-.67-.149c-.343 0-.632.071-.867.213a1.666 1.666 0 0 0-.567.568 2.535 2.535 0 0 0-.313.808 4.477 4.477 0 0 0-.099.931c0 .514.084 1.056.252 1.63.166.574.399 1.169.698 1.787z"/>
    <path d="M95.852 16.056l3.226-2.464-3.622-1.831 2.115-3.463-4.037-.397.724-3.994-3.91 1.088-.769-3.984-3.253 2.427L84.168 0l-2.156 3.438-3.251-2.427-.769 3.985-3.909-1.088.723 3.994-4.039.397 2.116 3.463-3.622 1.83 3.225 2.464-2.717 3.015 3.897 1.133-1.444 3.792 4.043-.352.021 4.059 3.644-1.788.723 1.837c.924 2.188.193 6.695-.885 10.178-1.498 4.842 2.198 7.194 3.432 5.521 1.458-1.98-.823-7.273-.302-13.756.098-1.201.552-1.965 1.107-2.797.01-.014.018-.029.027-.045l.135-.146.594.644c1.025 1.385 1.078 3.424.728 6.818-.23 2.216-.687 4.318 1.139 5.193 2.126 1.02 2.188-3.11 1.789-5.256-.585-3.159-.969-5.409-.492-6.967l.482-1.225 3.644 1.788.023-4.06 4.042.353-1.443-3.792 3.896-1.134-2.717-3.013zm-2.664-2.301a1.052 1.052 0 0 1-.438.221 3.41 3.41 0 0 1-.681.104c-.266.018-.562.026-.891.026a24.643 24.643 0 0 1-1.623-.06c.142.195.254.393.338.595.084.202.15.396.197.584.049.187.078.36.094.523.016.161.021.303.021.422 0 .639-.109 1.273-.328 1.903-.66 1.898-1.188 2.838-3.056 4.184a7.62 7.62 0 0 1-1.147.685 6.202 6.202 0 0 1-1.238.444 5.396 5.396 0 0 1-1.296.158 5.26 5.26 0 0 1-1.865-.33 4.507 4.507 0 0 1-1.532-.946 4.506 4.506 0 0 1-1.039-1.496c-.259-.586-.385-1.245-.385-1.978 0-.663.091-1.262.277-1.798.182-.536.428-1.02.734-1.451a6.43 6.43 0 0 1 1.051-1.155c.395-.34.802-.646 1.226-.92a12.755 12.755 0 0 1-.679-1.866 6.594 6.594 0 0 1-.246-1.739c0-.573.107-1.11.324-1.611a4.25 4.25 0 0 1 .875-1.313 4.148 4.148 0 0 1 1.268-.886 3.596 3.596 0 0 1 1.501-.325c.414 0 .787.061 1.119.183.332.123.614.294.85.513.232.219.413.485.538.796.125.312.187.655.187 1.028 0 .354-.066.739-.201 1.156a5.117 5.117 0 0 1-.658 1.29 8.27 8.27 0 0 1-1.188 1.346c-.489.454-1.085.893-1.788 1.316.294.538.625 1.079.995 1.623a24.34 24.34 0 0 0 1.183 1.596c.418.521.854 1.022 1.309 1.503.453.481.912.931 1.376 1.35.214-.409.368-.835.467-1.279.097-.444.146-.892.146-1.347a5.06 5.06 0 0 0-.234-1.533 4.008 4.008 0 0 0-.76-1.368c-.328-.04-.604-.076-.826-.109a2.804 2.804 0 0 1-.438-.086c-.108-.035-.188-.075-.231-.123s-.066-.106-.066-.176c0-.064.033-.133.101-.206.067-.072.149-.142.248-.209.098-.067.203-.129.316-.187.114-.057.221-.101.314-.131.492.125.919.294 1.277.508.439 0 .852-.004 1.234-.015.384-.009.755-.028 1.114-.056a28.858 28.858 0 0 0 2.174-.251c.09.205.135.375.135.508a.502.502 0 0 1-.155.385zM106.234 12.263a39.197 39.197 0 0 0 1.271.054l.504.017c.148.005.277.008.386.01.211.004.412 0 .601-.01s.353-.021.485-.033c.047.176.067.314.065.416-.004.203-.09.334-.259.396s-.413.089-.729.083a11.706 11.706 0 0 1-1.063-.071 75.627 75.627 0 0 0-1.291-.123c-.027.548-.062 1.144-.103 1.788a85.78 85.78 0 0 1-.345 4.103c-.075.71-.146 1.453-.284 2.065a15.159 15.159 0 0 1-.479 1.667c-.285.782-.604 1.434-.954 1.956-.352.521-.721.938-1.111 1.252a3.692 3.692 0 0 1-1.207.662 3.947 3.947 0 0 1-1.238.181c-.354-.006-.683-.051-.98-.135s-.561-.195-.777-.333a1.722 1.722 0 0 1-.515-.476.96.96 0 0 1-.181-.566.778.778 0 0 1 .082-.327.94.94 0 0 1 .216-.282c.092-.082.198-.146.321-.199.123-.049.256-.073.397-.07.129.24.272.447.433.617.158.173.328.312.51.426.185.109.373.193.568.249.198.055.398.083.603.087.528.01.981-.154 1.358-.49.377-.337.696-.816.959-1.439.265-.625.56-2.194.654-3.283.096-1.087.167-2.264.215-3.528.049-1.264.09-2.589.125-3.976-.435-.003-.834.006-1.203.026a3.449 3.449 0 0 0-.931.163.347.347 0 0 1-.024-.132c.002-.11.059-.212.166-.305.106-.092.258-.173.449-.243.192-.071.424-.126.694-.168.271-.041.569-.065.896-.074.025-.433.059-.846.092-1.239a24.342 24.342 0 0 1 .313-2.321c.072-.386.16-.785.266-1.198a7.66 7.66 0 0 1 .51-1.445c.207-.427.438-.806.695-1.135.256-.33.532-.611.832-.846.295-.234.6-.426.909-.575a4.198 4.198 0 0 1 1.882-.411c.445.007.844.074 1.188.198.346.123.639.283.876.479s.418.414.541.656c.123.242.182.488.177.737a1.311 1.311 0 0 1-.104.516 1.089 1.089 0 0 1-.645.61 1.292 1.292 0 0 1-.458.075 1.636 1.636 0 0 1-.667-.171l-.025-.076c.09-.201.16-.377.205-.529.049-.151.072-.307.076-.468.004-.221-.037-.412-.125-.573s-.201-.293-.346-.396a1.5 1.5 0 0 0-.48-.23 2.048 2.048 0 0 0-.524-.079c-.519-.009-.954.098-1.315.322a2.784 2.784 0 0 0-.908.934c-.244.399-.44.87-.59 1.414-.148.544-.265 1.13-.347 1.759-.083.63-.146 1.289-.188 1.977-.047.687-.087 1.374-.124 2.06zM112.855 12.332a36.416 36.416 0 0 0-.201 1.579c-.055.528-.1 1.038-.135 1.531a36.183 36.183 0 0 0-.077 3.825c.014.343.035.632.068.868.031.236.071.423.12.563a.84.84 0 0 0 .181.325c.07.076.153.125.248.148.094.023.201.035.321.035.222 0 .459-.034.716-.101.256-.067.514-.16.776-.28l.131.359a4.32 4.32 0 0 1-.625.408 8.14 8.14 0 0 1-.791.38 6.464 6.464 0 0 1-.812.279 2.686 2.686 0 0 1-.688.107c-.129 0-.246-.01-.353-.031a.557.557 0 0 1-.286-.156 1.066 1.066 0 0 1-.229-.366 3.108 3.108 0 0 1-.166-.656 11.14 11.14 0 0 1-.1-1.038 27.722 27.722 0 0 1-.035-1.506c0-.345.004-.736.01-1.172.008-.435.02-.902.031-1.402a104.29 104.29 0 0 1 .147-3.3c.01-.129.043-.234.104-.314s.136-.143.224-.187.18-.074.277-.089.188-.024.271-.024c.311.001.601.072.873.215zM119.704 7.114c-.192.875-.354 1.78-.487 2.713a74.49 74.49 0 0 0-.335 2.76c.218.01.429.017.634.021s.396.009.571.014c.179.004.34.007.483.007h.363c.418 0 .762-.025 1.028-.076.022.078.041.15.056.214a.744.744 0 0 1 .021.18c0 .203-.084.334-.252.394-.169.06-.411.089-.729.089-.306 0-.646-.019-1.021-.055a51.515 51.515 0 0 0-1.232-.104c-.052.493-.095.974-.128 1.441-.034.468-.062.909-.084 1.324-.021.415-.034.799-.045 1.154-.01.355-.014.664-.014.927 0 .493.024.933.075 1.32s.142.715.271.984c.129.27.308.476.531.619.228.143.512.214.856.214.248 0 .525-.044.832-.131a6.392 6.392 0 0 0 1.049-.421.735.735 0 0 1 .213.456c-.284.189-.572.36-.862.515-.29.155-.576.287-.856.397a5.55 5.55 0 0 1-.813.255c-.265.061-.513.09-.747.09-.311 0-.591-.057-.848-.169-.256-.112-.478-.313-.664-.602-.187-.288-.332-.676-.437-1.164-.104-.489-.153-1.106-.153-1.853 0-.418.006-.851.021-1.295s.032-.895.056-1.351a53.86 53.86 0 0 1 .215-2.716 14.7 14.7 0 0 0-1.012.045 4.925 4.925 0 0 0-.8.121.198.198 0 0 1-.021-.097c0-.097.047-.188.142-.273.094-.085.226-.162.396-.231.168-.069.369-.126.604-.173.235-.046.494-.078.772-.097.106-.962.222-1.873.34-2.73a58.57 58.57 0 0 1 .359-2.294.65.65 0 0 1 .127-.297.72.72 0 0 1 .219-.186.866.866 0 0 1 .271-.097 1.627 1.627 0 0 1 .694.021c.119.031.235.077.341.137zM123.704 21.966c.104-.184.269-.423.479-.715.215-.292.465-.62.75-.984s.6-.752.938-1.165c.339-.412.688-.828 1.04-1.248a138.934 138.934 0 0 1 2.065-2.38c.312-.353.601-.668.856-.947.257-.279.468-.499.629-.66l-.041-.048c-.194.042-.405.073-.633.094s-.444.031-.653.031c-.312 0-.611-.011-.896-.034s-.549-.049-.784-.076a64.53 64.53 0 0 1-.625-.076 3.5 3.5 0 0 0-.415-.034c-.198 0-.378.027-.539.083a1 1 0 0 0-.421.28c-.121.131-.22.308-.295.529a3.498 3.498 0 0 0-.154.829l-.524-.014c.004-.249.011-.5.018-.756.007-.256.027-.502.062-.739s.086-.461.154-.67c.069-.21.172-.392.303-.546.131-.154.297-.276.5-.366s.453-.135.748-.135c.237 0 .51.017.812.048l.954.104c.334.037.676.072 1.025.104.351.032.689.048 1.021.048.357 0 .699-.028 1.025-.083.324-.055.6-.149.818-.283l.387.318a5.556 5.556 0 0 1-.422.736c-.188.288-.41.605-.666.953-.257.348-.539.718-.851 1.11-.312.391-.634.788-.968 1.188s-.674.802-1.017 1.203a90.5 90.5 0 0 1-2.698 2.999l.055.048a3.439 3.439 0 0 1 .651-.187 4.045 4.045 0 0 1 .675-.069c.291 0 .58.022.869.066.287.044.564.091.836.142.27.05.526.098.775.142s.484.065.705.065c.207 0 .398-.028.577-.083.177-.055.335-.153.476-.293.137-.141.252-.331.344-.57.094-.239.158-.546.195-.918l.512.041c-.01.664-.065 1.212-.166 1.645-.104.433-.242.775-.422 1.026a1.487 1.487 0 0 1-.638.526 2.132 2.132 0 0 1-.802.148c-.307 0-.629-.038-.973-.114-.344-.076-.697-.16-1.062-.252a23.868 23.868 0 0 0-1.115-.252 5.69 5.69 0 0 0-1.119-.114c-.348 0-.681.046-.998.138a2.65 2.65 0 0 0-.924.491l-.433-.324zM136.225 12.332a41.782 41.782 0 0 0-.41 4.51c-.018.44-.023.837-.023 1.192 0 .479.007.89.021 1.233.015.343.037.632.067.868.033.235.073.423.121.563a.853.853 0 0 0 .181.325.497.497 0 0 0 .25.148c.094.023.2.035.319.035.224 0 .46-.034.716-.101s.516-.16.777-.28l.132.359c-.166.133-.375.27-.626.408a8.157 8.157 0 0 1-.792.38 6.356 6.356 0 0 1-.812.279 2.68 2.68 0 0 1-.688.107c-.129 0-.246-.01-.353-.031a.564.564 0 0 1-.287-.156 1.114 1.114 0 0 1-.229-.366 3.108 3.108 0 0 1-.166-.656 11.404 11.404 0 0 1-.102-1.038 29.041 29.041 0 0 1-.033-1.506 117.728 117.728 0 0 1 .042-2.574c.015-.501.03-1.028.056-1.583.021-.555.053-1.128.09-1.717a.565.565 0 0 1 .325-.501c.089-.044.183-.074.28-.089s.189-.024.271-.024c.311.001.602.072.873.215zm-.601-3.124a.891.891 0 0 1-.429-.101 1.035 1.035 0 0 1-.317-.263 1.117 1.117 0 0 1-.198-.374 1.325 1.325 0 0 1-.07-.432c0-.208.035-.391.104-.549.07-.158.159-.292.271-.401a1.06 1.06 0 0 1 .365-.241 1.055 1.055 0 0 1 .817.006.947.947 0 0 1 .32.238c.091.101.16.217.209.349s.072.273.072.426a1.55 1.55 0 0 1-.314.911 1.19 1.19 0 0 1-.359.312.956.956 0 0 1-.471.119zM149.707 11.792c-.161-.222-.409-.409-.743-.559l-.094.063c.006.038.008.07.011.098s.006.059.006.091a1.281 1.281 0 0 1-.441.987 1.446 1.446 0 0 1-.473.263 1.702 1.702 0 0 1-.559.092c-.232 0-.438-.034-.612-.103a6.653 6.653 0 0 1-.54-.235 8.84 8.84 0 0 0-.388-.172 4.663 4.663 0 0 0-.99-.285 3.765 3.765 0 0 0-.637-.049c-.608 0-1.188.108-1.74.324a4.662 4.662 0 0 0-1.452.892c-.418.379-.75.83-.996 1.352a3.95 3.95 0 0 0-.369 1.704c0 .361.054.706.16 1.037.104.33.258.636.459.917.199.281.446.532.737.752.244.184.521.333.822.461l-.06.188a8.286 8.286 0 0 0-.42.171c-.193.087-.371.19-.533.309a1.67 1.67 0 0 0-.4.41.9.9 0 0 0-.159.52c0 .17.04.323.119.458.078.134.183.254.312.361.129.105.271.197.433.275.159.077.323.146.489.207l-.015.028a5.811 5.811 0 0 0-2.109 1.023 3.76 3.76 0 0 0-.557.54c-.162.193-.287.4-.382.625a1.76 1.76 0 0 0-.144.699c0 .291.065.551.197.777.129.229.307.43.528.604s.479.322.771.445.596.225.914.303c.319.076.646.134.974.17a8.489 8.489 0 0 0 2.431-.074c.484-.085.94-.206 1.368-.363.43-.156.818-.346 1.176-.563.354-.222.661-.464.918-.729.256-.265.457-.55.598-.854.144-.307.214-.623.214-.952 0-.261-.054-.491-.156-.69-.104-.199-.248-.373-.433-.521s-.401-.28-.653-.393a6.016 6.016 0 0 0-.824-.292 12.56 12.56 0 0 0-.938-.222 57.61 57.61 0 0 0-.998-.188c-.373-.068-.732-.136-1.077-.202a7.345 7.345 0 0 1-.908-.229 2.231 2.231 0 0 1-.625-.307c-.153-.118-.231-.259-.231-.427a.43.43 0 0 1 .082-.247.923.923 0 0 1 .229-.23 1.635 1.635 0 0 1 .492-.236c.041-.01.082-.02.127-.027 0 0 .291-.051.633-.015a4.298 4.298 0 0 0 1.496-.147c.377-.108.73-.259 1.059-.454.328-.194.627-.423.896-.688.268-.264.497-.555.688-.872.19-.316.338-.651.441-1.004a3.833 3.833 0 0 0 .01-2.139 3.34 3.34 0 0 0-.515-1.033l.026-.035a3.48 3.48 0 0 0 1.096.197c.223 0 .427-.026.609-.078.184-.051.342-.126.475-.225.134-.099.234-.217.309-.354a.998.998 0 0 0 .108-.474c.001-.23-.08-.454-.242-.676zm-7.277 10.796c.449.096.889.18 1.312.25.425.072.83.151 1.212.238.284.064.545.135.784.21.238.075.443.168.617.276.174.106.31.232.408.379.1.146.147.322.147.524 0 .364-.103.699-.302 1.007-.2.307-.471.571-.811.799-.341.225-.736.4-1.186.526a5.209 5.209 0 0 1-2.525.065 3.611 3.611 0 0 1-1.018-.389 2.347 2.347 0 0 1-.742-.656 1.55 1.55 0 0 1-.286-.939c0-.295.063-.566.192-.816s.303-.474.522-.668.474-.36.759-.498c.294-.13.596-.235.917-.308zm3.074-4.156c-.162.146-.538.355-.748.441a1.83 1.83 0 0 1-.707.13c-.295 0-.564-.047-.812-.142a2.792 2.792 0 0 1-.66-.386c-.549-.406-1.274-1.384-1.383-2.342-.111-1.018.343-2.248 1.154-2.892.174-.138.362-.26.582-.344.221-.084.801-.273 1.769-.008.651.179 1.743.854 1.847 2.65.081 1.477-.316 2.24-1.042 2.893z"/>
  </g>
</svg>
