<svg width="220" height="35" viewBox="0 0 220 35" xmlns="http://www.w3.org/2000/svg" xmlns:xlink="http://www.w3.org/1999/xlink">
  <defs>
    <path id="a" d="M.105.067h175.771V34.94H.106z"/>
  </defs>
  <g fill="none" fill-rule="evenodd">
    <g transform="translate(44.055)">
      <mask id="b" fill="#fff">
        <use xlink:href="#a"/>
      </mask>
      <path d="M.105 19.218h2.292v-7.075H5.23v7.075h2.292V3.325H5.23v6.808H2.397V3.325H.105v15.893zm9.47 0h6.831v-2.277h-4.54v-4.665h3.956v-2.143h-3.956V5.468h4.54V3.325H9.574v15.893zm8.517 0h2.292V3.325h-2.292v15.893zm4.321 0h2.293V9.664h.045l3.506 9.554h2.158V3.325h-2.293V12.9h-.045l-3.46-9.576h-2.204v15.893zm12.302-13.75h1.191c1.687 0 1.956.87 1.956 2.478 0 1.585-.247 2.477-1.843 2.477h-1.304V5.468zm-2.291 13.75h2.291v-6.785h1.372l2.135 6.785h2.427l-2.472-7.255c1.46-.803 1.978-2.142 1.978-3.973 0-3.08-1.327-4.665-4.045-4.665h-3.686v15.893zm9.845 0h2.293V3.325H42.27v15.893zm11.693-4.53H51.67v.78c0 1.25-.808 1.608-1.438 1.608-1.033 0-1.393-.714-1.393-1.63V7.321c0-1.071.27-1.853 1.415-1.853.877 0 1.416.759 1.416 1.652v.76h2.292v-.894c0-2.21-1.573-3.795-3.685-3.795-2.225 0-3.731 1.585-3.731 3.661v8.75c0 2.902 2.023 3.75 3.776 3.75 2.046 0 3.64-1.719 3.64-3.683v-.982zm1.837 4.53h2.292v-7.075h2.832v7.075h2.293V3.325h-2.293v6.808H58.09V3.325H55.8v15.893zm13.978 0h3.125c2.967 0 4.293-1.563 4.293-4.33v-.893c0-1.652-.494-2.611-1.573-3.125 1.01-.625 1.573-1.25 1.573-2.946v-.58c0-2.077-1.102-4.02-4.068-4.02h-3.35v15.894zm2.293-7.366h1.011c1.664 0 1.956.826 1.956 2.41 0 1.564-.135 2.679-1.978 2.679h-.989v-5.089zm0-6.384h.945c1.505 0 2.022.737 2.022 2.143 0 1.451-.404 2.233-1.934 2.233H72.07V5.468zm8.049-3.125h2.022V.067H80.12v2.276zm3.64 0h2.023V.067h-2.023v2.276zm-4.652 13.125c0 2.59 1.977 3.884 3.843 3.884 1.866 0 3.844-1.295 3.844-3.884V7.075c0-2.59-1.978-3.884-3.844-3.884-1.866 0-3.843 1.295-3.843 3.884v8.393zM81.4 7.075c0-1.094.718-1.607 1.55-1.607.831 0 1.551.513 1.551 1.607v8.393c0 1.094-.72 1.608-1.55 1.608-.833 0-1.55-.514-1.55-1.608V7.075zm7.338 12.143h6.832v-2.277h-4.54V3.325h-2.292v15.893zm8.486 0h6.833v-2.277h-4.54V3.325h-2.293v15.893zm20.137-12.432c0-1.764-1.528-3.595-3.821-3.595-2.63 0-3.933 1.942-3.933 4.352 0 1.988.517 3.282 2.495 4.086l1.64.67c1.123.446 1.327.713 1.327 2.41 0 1.451-.113 2.367-1.664 2.367-1.168 0-1.618-.805-1.618-1.63v-.714h-2.292v.848c0 2.144 1.685 3.772 3.91 3.772 2.966 0 3.956-1.987 3.956-4.665 0-2.321-.381-3.594-2.405-4.353l-1.753-.691c-1.191-.469-1.304-.893-1.304-2.121 0-1.05.293-2.054 1.551-2.054 1.168 0 1.619.87 1.619 1.92v.513h2.292V6.786zm3.78 12.432h2.292V5.468h2.652V3.325h-7.596v2.143h2.652v13.75zm6.403 0h2.292V3.325h-2.292v15.893zm4.364 0h2.292v-6.785h3.957v-2.144H134.2V5.47h4.541V3.324h-6.833v15.893zm10.597 0h2.292V5.468h2.652V3.325h-7.596v2.143h2.652v13.75zm13.786-15.893h-2.293v12.098c0 1.117-.607 1.653-1.416 1.653-.809 0-1.416-.536-1.416-1.653V3.325h-2.292v12.321a3.689 3.689 0 003.708 3.706 3.69 3.69 0 003.71-3.706V3.325zm1.997 15.893h2.293V9.664h.045l3.507 9.554h2.157V3.325h-2.293V12.9h-.045l-3.462-9.576h-2.202v15.893zm9.903-3.75c0 2.59 1.977 3.884 3.844 3.884 1.865 0 3.841-1.295 3.841-3.884v-5h-4.112v2.01h1.82v2.99c0 1.094-.719 1.608-1.55 1.608-.831 0-1.551-.514-1.551-1.608V7.075c0-1.094.72-1.607 1.552-1.607.83 0 1.55.513 1.55 1.607v.804h2.291v-.804c0-2.59-1.976-3.884-3.841-3.884-1.867 0-3.844 1.295-3.844 3.884v8.393zM.193 32.592h3.301c1.296 0 2.175-.055 2.913-.802.682-.679.794-1.439.794-2.187 0-1.494-.948-2.227-1.631-2.324v-.069c.795-.18 1.408-.97 1.408-2.2 0-.845-.349-1.703-1.101-2.16-.585-.359-1.435-.414-2.313-.414H.194v10.156zm2.187-4.456c.794 0 1.588 0 1.908.125.53.222.656.789.656 1.273 0 1.038-.558 1.453-1.45 1.453H2.38v-2.85zm0-4.137h1.018c.46 0 1.364 0 1.364 1.232 0 1.287-.584 1.342-2.382 1.342V24zm7.115 8.593h1.992v-4.33c.794-.665 1.31-.665 2.131-.665v-2.531c-.71.026-1.505.248-2.2 1.853h-.057v-1.66H9.495v7.333zm6.825-5.41c.404-.345.933-.803 1.783-.803.377 0 .683.139.808.32.14.192.14.4.14 1.12a6.206 6.206 0 00-2.118.512c-1.338.609-1.588 1.687-1.588 2.365 0 1.688 1.198 2.09 1.978 2.09.64 0 1.184-.319 1.281-.373.307-.18.447-.347.683-.651h.056c.18.332.57.913 1.52.913h.57v-1.328c-.376-.014-.432-.415-.432-.456v-3.599c0-.387 0-.94-.558-1.493-.6-.596-1.7-.72-2.215-.72-1.574 0-2.2.484-2.828.968l.92 1.134zm2.716 2.796c0 .483-.166 1.369-1.058 1.369-.474 0-.78-.401-.78-.9 0-1.259 1.406-1.522 1.838-1.604v1.135zm4.467 2.614h1.964V27.57c.377-.401.711-.762 1.269-.762.654 0 .64.705.64.997v4.787h1.965v-5.369c0-.553 0-2.116-1.867-2.116-.976 0-1.687.718-2.118 1.508h-.042v-1.356h-1.81v7.333zm11.956-6.434c-.25-.387-.71-1.107-1.936-1.107-1.018 0-1.574.581-1.742 1.356-.153.678-.153 1.508-.153 2.85 0 .54 0 1.232.097 1.786.112.623.516 1.66 1.826 1.66.724 0 1.365-.18 2.033-1.3h.084v1.189h1.839V22.436h-1.979v3.722h-.069zm.07 4.262c-.181.194-.53.567-1.1.567-.335 0-.656-.137-.753-.748-.042-.276-.042-.801-.042-1.714 0-1.219 0-1.938.752-1.938.488 0 .976.401 1.142.553v3.28zm9.603-1.094c0-1.895 0-2.587-.446-3.237-.362-.54-.934-1.038-2.131-1.038-.6 0-1.686.098-2.257 1.038-.502.816-.502 2.02-.502 3.307 0 .055.042.927.18 1.466.447 1.688 1.937 1.882 2.843 1.882.975 0 1.589-.22 2.34-.484l-.209-1.467c-.877.429-1.364.54-1.964.54-1.365 0-1.365-1.26-1.351-2.007h3.497zm-3.497-1.093c-.014-.927-.028-1.951.892-1.951.975 0 .989.845.989 1.951h-1.881zm5.887 4.359h1.965V27.57c.376-.401.71-.762 1.268-.762.654 0 .64.705.64.997v4.787h1.965v-5.369c0-.553 0-2.116-1.867-2.116-.976 0-1.686.718-2.118 1.508h-.041v-1.356h-1.812v7.333zm8.25 0h1.839v-1.19h.083c.432.789 1.086 1.3 1.95 1.3 1.561 0 1.84-1.315 1.895-1.66.084-.58.098-1.272.098-2.102l-.014-1.122c0-1.135-.112-2.767-1.867-2.767-.362 0-1.045.015-1.979 1.107h-.042v-3.722h-1.964v10.156zm1.963-5.452c.572-.442.78-.553 1.143-.553.738 0 .766.582.766 2.24 0 1.483-.028 2.16-.808 2.16-.571 0-.92-.373-1.1-.567v-3.28zm10.173-1.881v5.036c-.11.14-.278.374-.627.567-.097.056-.403.195-.626.195-.558 0-.669-.526-.669-1.025V25.26h-1.95v5.562c0 .512.07 1.951 1.825 1.951 1.184 0 1.713-.733 2.131-1.425h.084v1.245h1.782v-7.333h-1.95zm4.325 7.333h1.991v-4.33c.795-.665 1.31-.665 2.133-.665v-2.531c-.711.026-1.505.248-2.201 1.853H74.1v-1.66h-1.867v7.333zm6.3 1.231c.18.444.864 1.177 2.535 1.177 3.065 0 3.08-2.214 3.08-3.613v-6.225h-1.84v1.245h-.056c-.236-.428-.404-.65-.654-.858-.265-.222-.641-.54-1.38-.54-1.867 0-1.867 2.104-1.867 2.81v2.047c0 .332 0 .872.153 1.273.197.512.781 1.121 1.617 1.121.947 0 1.575-.429 1.992-1.052h.07v1.108c0 .36-.015.622-.111.844-.224.484-.823.623-1.143.623-.669 0-.989-.43-1.184-.679l-1.212.72zm3.65-3.597c-.167.167-.501.525-1.045.525-.293 0-.585-.137-.725-.525-.097-.263-.139-1.301-.139-1.564 0-.248.042-.995.139-1.273.084-.25.28-.484.725-.484.306 0 .878.235 1.045.47v2.851z" fill="#3C3C3C" mask="url(#b)"/>
    </g>
    <path fill="#3C3C3C" d="M0 2.188h9.362v16.953H0zM11.564 2.188h9.362v16.953h-9.362zM23.404 2.188h9.362v16.953h-9.362zM23.404 21.328h9.362v11.211h-9.362zM11.564 21.328h9.362v11.211h-9.362zM0 21.328h9.362v11.211H0z"/>
  </g>
</svg>
