<svg width="67" height="31" viewBox="0 0 67 31" xmlns="http://www.w3.org/2000/svg">
  <g fill-rule="nonzero" fill="none">
    <path fill="#3C3C3C" d="M66.486.983H0v29.19h60.111z"/>
    <path d="M35.246 21.28c0-.567.183-1.513.183-2.458 0-.947-.183-1.892-.183-2.46-1.466-.568-5.129-1.514-10.442-.568v5.866c1.834.19 3.482.19 4.763.19 3.299 0 4.947-.379 5.679-.57zm18.135 0c0-.567.183-1.513.183-2.458 0-.947-.183-1.892-.183-2.46-1.466-.568-5.129-1.514-10.442-.568v5.866c1.833.19 3.482.19 4.765.19 3.113 0 4.762-.379 5.677-.57zm2.565-2.647c0 3.594-.549 4.54-.549 4.54s-1.649 1.324-7.693 1.324c-3.3 0-7.145-.567-7.145-.567V7.47h2.38v5.486c1.466-.19 2.931-.378 4.031-.378 5.679 0 8.427 1.703 8.427 1.703s.549.756.549 4.352zm-18.135 0c0 3.594-.549 4.54-.549 4.54s-1.648 1.324-7.695 1.324c-3.297 0-7.143-.567-7.143-.567V7.47h2.38v5.486c1.466-.19 2.931-.378 4.031-.378 5.679 0 8.427 1.703 8.427 1.703s.549.756.549 4.352zm-18.135-3.217c-6.228 0-9.525 1.134-10.624 1.514v7.378H6.486v-9.08s3.665-2.272 13.19-2.461v2.65z" fill="#FFF"/>
  </g>
</svg>
