<svg width="211" height="26" viewBox="0 0 211 26" xmlns="http://www.w3.org/2000/svg">
  <g fill="#3C3C3C" fill-rule="evenodd">
    <path d="M23 .799H0v23h23v-23zM.95 14.455c0-.768.62-1.39 1.383-1.39.764 0 1.382.622 1.382 1.39 0 .768-.618 1.39-1.382 1.39a1.385 1.385 0 01-1.382-1.39zm1.383 4.822c.764 0 1.382-.625 1.382-1.39 0-.768-.618-1.39-1.382-1.39-.764 0-1.382.622-1.382 1.39 0 .765.618 1.39 1.382 1.39zm-1.382 2.04c0-.766.618-1.387 1.382-1.387.764 0 1.382.621 1.382 1.386 0 .768-.618 1.39-1.382 1.39a1.385 1.385 0 01-1.382-1.39zm8.241-5.473c.764 0 1.382-.621 1.382-1.39 0-.767-.618-1.389-1.382-1.389-.764 0-1.382.622-1.382 1.39 0 .768.618 1.39 1.382 1.39zM7.81 21.316c0-.765.618-1.386 1.382-1.386.764 0 1.382.621 1.382 1.386 0 .768-.618 1.39-1.382 1.39a1.385 1.385 0 01-1.382-1.39zm6-5.472c.762 0 1.383-.621 1.383-1.39 0-.767-.621-1.389-1.382-1.389-.764 0-1.382.622-1.382 1.39 0 .768.618 1.39 1.382 1.39zm-1.381 2.043c0-.768.618-1.39 1.382-1.39.76 0 1.382.622 1.382 1.39 0 .765-.621 1.39-1.382 1.39a1.387 1.387 0 01-1.382-1.39zm4.808 1.39c.764 0 1.382-.625 1.382-1.39 0-.768-.618-1.39-1.382-1.39-.764 0-1.382.622-1.382 1.39 0 .765.618 1.39 1.382 1.39zm-1.382 2.04c0-.766.618-1.387 1.382-1.387.764 0 1.382.621 1.382 1.386 0 .768-.618 1.39-1.382 1.39a1.385 1.385 0 01-1.382-1.39zm4.815-2.04c.764 0 1.382-.625 1.382-1.39 0-.768-.618-1.39-1.382-1.39-.764 0-1.382.622-1.382 1.39 0 .765.618 1.39 1.382 1.39zm-1.382 2.04c0-.766.618-1.387 1.382-1.387.764 0 1.382.621 1.382 1.386 0 .768-.618 1.39-1.382 1.39a1.385 1.385 0 01-1.382-1.39zm-5.477 1.389c.76 0 1.382-.622 1.382-1.39 0-.765-.621-1.386-1.382-1.386-.764 0-1.382.621-1.382 1.386 0 .768.618 1.39 1.382 1.39zM.95 3.278c0-.768.618-1.39 1.382-1.39.764 0 1.382.622 1.382 1.39 0 .768-.618 1.39-1.382 1.39a1.385 1.385 0 01-1.382-1.39zM13.81 8.1c.76 0 1.382-.621 1.382-1.39 0-.768-.621-1.389-1.382-1.389-.764 0-1.382.621-1.382 1.39 0 .768.618 1.389 1.382 1.389zm-1.382 2.043c0-.768.618-1.39 1.382-1.39.76 0 1.382.622 1.382 1.39 0 .768-.621 1.39-1.382 1.39a1.385 1.385 0 01-1.382-1.39zM17.237 8.1c.764 0 1.382-.621 1.382-1.39 0-.768-.618-1.389-1.382-1.389-.764 0-1.382.621-1.382 1.39 0 .768.618 1.389 1.382 1.389zm-1.382 2.043c0-.768.618-1.39 1.382-1.39.764 0 1.382.622 1.382 1.39 0 .768-.618 1.39-1.382 1.39a1.385 1.385 0 01-1.382-1.39zm4.815-5.475c.764 0 1.382-.622 1.382-1.39 0-.768-.618-1.39-1.382-1.39-.764 0-1.382.622-1.382 1.39 0 .768.618 1.39 1.382 1.39zM19.288 6.71c0-.768.618-1.389 1.382-1.389.764 0 1.382.621 1.382 1.39 0 .768-.618 1.389-1.382 1.389a1.385 1.385 0 01-1.382-1.39zm1.382 4.822c.764 0 1.382-.621 1.382-1.39 0-.767-.618-1.389-1.382-1.389-.764 0-1.382.622-1.382 1.39 0 .768.618 1.39 1.382 1.39zM7.81 6.71c0-.768.618-1.389 1.382-1.389.764 0 1.382.621 1.382 1.39 0 .768-.618 1.389-1.382 1.389A1.385 1.385 0 017.81 6.71zm1.382 4.822c.764 0 1.382-.621 1.382-1.39 0-.767-.618-1.389-1.382-1.389-.764 0-1.382.622-1.382 1.39 0 .768.618 1.39 1.382 1.39zM.951 6.71c0-.768.618-1.389 1.382-1.389.764 0 1.382.621 1.382 1.39 0 .768-.618 1.389-1.382 1.389A1.385 1.385 0 01.951 6.71zm1.382 4.822c.764 0 1.382-.621 1.382-1.39 0-.767-.618-1.389-1.382-1.389-.764 0-1.382.622-1.382 1.39 0 .768.618 1.39 1.382 1.39zm2.044 6.355c0-.768.619-1.39 1.383-1.39.763 0 1.382.622 1.382 1.39 0 .765-.619 1.39-1.382 1.39a1.387 1.387 0 01-1.383-1.39zM5.76 8.1c.763 0 1.382-.621 1.382-1.39 0-.768-.619-1.389-1.382-1.389-.764 0-1.383.621-1.383 1.39 0 .768.619 1.389 1.383 1.389z"/>
    <path d="M31 14.962c0 2.178.647 3.837 2.967 3.837 2.321 0 2.968-1.83 2.968-3.837V8.555h-.89v6.391c0 1.366-.202 3.009-2.078 3.009-1.789 0-2.077-1.483-2.077-3.009V8.555H31v6.407zm8.054 3.733h.832v-4.606c0-1.149.644-2.12 1.662-2.12 1.36 0 1.36 1.221 1.36 1.727v4.999h.832v-4.97c0-.493 0-2.54-2.02-2.54-1.22 0-1.69.872-1.863 1.19h-.028a16.666 16.666 0 00-.058-1.09h-.775c.016.772.058 1.525.058 2.298v5.112zm6.706 0h.832v-7.41h-.832v7.41zm-.086-9.053h1.002V8.338h-1.002v1.304zm4.257 9.053h1.002l2.135-7.41h-.832l-1.79 6.452h-.028l-1.735-6.452h-.887l2.135 7.41zm8.813-3.428c0-1.801-.218-4.083-2.337-4.083-1.232 0-2.593 1.016-2.593 3.807 0 .74 0 3.808 2.865 3.808.874 0 1.36-.234 1.706-.422l-.045-.974c-.416.377-1.1.61-1.575.61-.33 0-2.064 0-2.064-2.746h4.043zm-4.043-.785c0-.958.531-2.512 1.661-2.512.676 0 1.492.551 1.492 2.512H54.7zm5.602 4.213h.832V14.03c0-1.367.602-1.945 1.92-1.945v-.902c-.803 0-1.417.218-1.949 1.279h-.029c-.012-.305-.041-.74-.057-1.178h-.772c.013.772.055 1.525.055 2.298v5.112zm7.122-7.293a5.086 5.086 0 00-1.348-.218c-.973 0-2.147.656-2.147 2.048 0 1.045.486 1.438 1.718 2.065.862.434 1.303.723 1.303 1.437 0 .67-.557 1.28-1.344 1.28-.676 0-1.421-.335-1.665-.51l-.112.944c.43.16.945.35 1.847.35 1.233 0 2.164-.814 2.164-2.151 0-1.191-.774-1.568-1.776-2.123-.99-.552-1.249-.695-1.249-1.38 0-.522.388-1.174 1.249-1.174.473 0 .829.146 1.245.305l.115-.873zm1.978 7.293h.83v-7.41h-.83v7.41zm-.086-9.053h1.002V8.338h-1.002v1.304zm3.31.163v1.48h-1.089v.785h1.089v5.057c0 .828.288 1.672 1.36 1.672.388 0 .759-.03.96-.104v-.84c-.156.07-.3.158-.688.158-.7 0-.8-.522-.8-1.12V12.07h1.489v-.785h-1.489V9.542l-.832.263zm4.328-.03h.829V8.351h-.83v1.424zm2.148 0h.832V8.351h-.832v1.424zm1.578 3.866c0-.539 0-2.457-2.25-2.457-.804 0-1.32.276-2.008.656l.128.899c.087-.075.861-.77 1.835-.77 1.52 0 1.52 1.338 1.52 2.266h-.531c-1.047 0-3.525.042-3.525 2.412 0 1.207.903 2.152 2.036 2.152.945 0 1.546-.35 2.049-1.165h.029l.057 1.06h.746a20.47 20.47 0 01-.086-1.654V13.64zm-.775 2.191c0 2.022-1.434 2.181-1.821 2.181-.887 0-1.345-.743-1.345-1.366 0-1.685 1.447-1.685 3.166-1.685v.87zm3.067-6.027v1.48H81.88v.785h1.092v5.057c0 .828.285 1.672 1.36 1.672.388 0 .759-.03.96-.104v-.84c-.156.07-.3.158-.688.158-.7 0-.803-.522-.803-1.12V12.07h1.492v-.785h-1.492V9.542l-.83.263zm12.135-2.006h-.832v4.446h-.026c-.374-.684-.919-1.06-1.85-1.06-1.834 0-2.423 2.122-2.423 3.53 0 1.03.086 4.084 2.468 4.084.915 0 1.373-.422 1.917-1.12h.029v1.016h.775a47.66 47.66 0 01-.058-2.454V7.8zm-4.241 7.192c0-1.713.429-3.021 1.677-3.021 1.79 0 1.79 2.12 1.79 3.11 0 1.508-.385 2.933-1.806 2.933-1.661 0-1.661-2.411-1.661-3.022zm10.675.276c0-1.801-.214-4.083-2.337-4.083-1.232 0-2.592 1.016-2.592 3.807 0 .74 0 3.808 2.865 3.808.873 0 1.363-.234 1.706-.422l-.042-.974c-.416.377-1.104.61-1.578.61-.33 0-2.062 0-2.062-2.746h4.04zm-4.04-.785c0-.958.529-2.512 1.662-2.512.672 0 1.488.551 1.488 2.512h-3.15zm5.602 4.213h.83V14.03c0-1.367.604-1.945 1.92-1.945v-.902c-.8 0-1.418.218-1.95 1.279h-.025c-.016-.305-.045-.74-.058-1.178h-.774c.016.772.057 1.525.057 2.298v5.112zm7.939 0h.887v-4.97h.029l3.854 4.97h1.174l-4.324-5.317 3.995-4.823h-1.089l-3.61 4.444h-.03V8.555h-.886v10.14zm7.852-8.92h.83V8.351h-.83v1.424zm2.148 0h.832V8.351h-.832v1.424zm1.678 1.51h-.833v4.606c0 1.149-.643 2.122-1.661 2.122-1.36 0-1.36-1.22-1.36-1.73v-4.998h-.833v5.174c0 1.175.43 2.34 2.02 2.34 1.22 0 1.777-.873 1.863-1.195h.029c.016.54.029.757.058 1.09h.774c-.016-.768-.057-1.525-.057-2.294v-5.115zm1.949 7.41h.83v-4.606c0-1.149.646-2.12 1.66-2.12 1.364 0 1.364 1.221 1.364 1.727v4.999h.83v-4.97c0-.493 0-2.54-2.02-2.54-1.217 0-1.69.872-1.864 1.19h-.029a14.667 14.667 0 00-.057-1.09h-.772c.013.772.058 1.525.058 2.298v5.112zm9.773-7.293a5.133 5.133 0 00-1.348-.218c-.976 0-2.15.656-2.15 2.048 0 1.045.489 1.438 1.718 2.065.861.434 1.306.723 1.306 1.437 0 .67-.56 1.28-1.348 1.28-.672 0-1.418-.335-1.66-.51l-.116.944c.429.16.944.35 1.847.35 1.232 0 2.164-.814 2.164-2.151 0-1.191-.772-1.568-1.777-2.123-.989-.552-1.245-.695-1.245-1.38 0-.522.387-1.174 1.245-1.174.474 0 .833.146 1.249.305l.115-.873zm2.276-1.597v1.48h-1.088v.785h1.088v5.057c0 .828.288 1.672 1.36 1.672.388 0 .762-.03.96-.104v-.84c-.156.07-.3.158-.688.158-.7 0-.8-.522-.8-1.12V12.07h1.489v-.785h-1.489V9.542l-.832.263zm8.153 5.462c0-1.801-.214-4.083-2.334-4.083-1.232 0-2.596 1.016-2.596 3.807 0 .74 0 3.808 2.869 3.808.873 0 1.36-.234 1.702-.422l-.041-.974c-.416.377-1.104.61-1.578.61-.327 0-2.062 0-2.062-2.746h4.04zm-4.04-.785c0-.958.528-2.512 1.662-2.512.672 0 1.491.551 1.491 2.512h-3.153zm10.445-5.086h1.246c1.306 0 1.821.772 1.821 1.73 0 1.207-.803 1.889-1.85 1.889h-1.217v-3.62zm0 4.463h1.36c1.233 0 1.921.857 1.921 2.048 0 .318-.086 1.947-2.02 1.947h-1.26V13.86zm-.886 4.836h1.719c.714 0 3.396 0 3.396-2.834 0-1.48-.877-2.207-1.793-2.47v-.026c.631-.263 1.575-.844 1.575-2.356 0-1.25-.816-2.454-2.564-2.454h-2.333v10.14zm11.533-3.428c0-1.801-.214-4.083-2.337-4.083-1.232 0-2.592 1.016-2.592 3.807 0 .74 0 3.808 2.864 3.808.874 0 1.364-.234 1.707-.422l-.042-.974c-.416.377-1.104.61-1.578.61-.33 0-2.062 0-2.062-2.746h4.04zm-4.04-.785c0-.958.529-2.512 1.662-2.512.672 0 1.488.551 1.488 2.512h-3.15zm5.602 4.213h.833V14.03c0-1.367.598-1.945 1.917-1.945v-.902c-.803 0-1.418.218-1.946 1.279h-.029c-.016-.305-.045-.74-.058-1.178h-.774c.012.772.057 1.525.057 2.298v5.112zm4.056 0h.83V7.799h-.83v10.896zm2.923 0h.829v-7.41h-.83v7.41zm-.087-9.053h1.002V8.338h-1.002v1.304zm2.936 9.053h.832v-4.606c0-1.149.643-2.12 1.661-2.12 1.364 0 1.364 1.221 1.364 1.727v4.999H178v-4.97c0-.493 0-2.54-2.02-2.54-1.216 0-1.69.872-1.863 1.19h-.029a14.67 14.67 0 00-.057-1.09h-.775c.016.772.058 1.525.058 2.298v5.112zM31 22.799v.507h156.17V25.8H211v-3z" fill-rule="nonzero"/>
  </g>
</svg>
